# xmcd CD database file
# Generated: Mon May 12 08:44:29 2003 by KSCD
# 
# Track frame offsets:
#       150
#       18001
#       29702
#       53778
#       72604
#       91955
#       103923
#       125299
#       138275
#       159876
#       179827
#
# Disc length: 2647 seconds
#
# Revision: 1
# Processed by: cddbd v1.4PL0 Copyright (c) Steve Scherf et al.
# Submitted via: Kscd 1.3.3
#
DISCID=960a550b
DTITLE=Owen Gerrard and The Temple street band - Live
DYEAR=1900
DGENRE=
TTITLE0=Whiskey in the jar
TTITLE1=High
TTITLE2=Fisherman's blues
TTITLE3=Home boys home
TTITLE4=Dirty old town
TTITLE5=Raggle taggle gypsy o
TTITLE6=Black velvet band
TTITLE7=Tell me ma
TTITLE8=Most of the time
TTITLE9=Black is the colour
TTITLE10=On my own
EXTD=
EXTT0=
EXTT1=
EXTT2=
EXTT3=
EXTT4=
EXTT5=
EXTT6=
EXTT7=
EXTT8=
EXTT9=
EXTT10=
PLAYORDER=
